<?xml version="1.0" encoding="UTF-8"?> <svg xmlns="http://www.w3.org/2000/svg" id="Layer_1" data-name="Layer 1" viewBox="0 0 120 135"><defs><style>.cls-1{fill:#262e32;}.cls-2{fill:#fff;}</style></defs><title>01_INSTANA_IconSet</title><path class="cls-1" d="M52,4.64,9.56,29.15A16,16,0,0,0,1.57,43V92a16,16,0,0,0,8,13.84L52,130.36a16,16,0,0,0,16,0l42.45-24.51a16,16,0,0,0,8-13.84V43a16,16,0,0,0-8-13.84L68,4.64A16,16,0,0,0,52,4.64Z"></path><path class="cls-2" d="M74.79,70.6a8.51,8.51,0,0,0-6.36,2.87l-3.77-2.25a10.66,10.66,0,0,0,0-7.6l3.8-2.27a8.48,8.48,0,1,0-2.17-5.65,8.85,8.85,0,0,0,.38,2.53l-3.85,2.29a10.66,10.66,0,0,0-6.53-3.74V52.31A8.49,8.49,0,1,0,45.9,44a8.68,8.68,0,0,0,6.73,8.33v4.43a10.81,10.81,0,0,0,0,21.29v4.58A8.66,8.66,0,0,0,45.9,91a8.51,8.51,0,1,0,10.38-8.28V78.06a10.64,10.64,0,0,0,6.53-3.73l3.82,2.28a8.51,8.51,0,1,0,8.16-6Zm0-18.72A3.81,3.81,0,1,1,71,55.69,3.81,3.81,0,0,1,74.79,51.88ZM50.67,44a3.81,3.81,0,1,1,3.8,3.81A3.81,3.81,0,0,1,50.67,44Zm7.6,47a3.81,3.81,0,1,1-3.8-3.81A3.81,3.81,0,0,1,58.27,91ZM54.56,73a5.62,5.62,0,1,1,5.62-5.62A5.62,5.62,0,0,1,54.56,73ZM74.79,82.9a3.81,3.81,0,1,1,3.81-3.81A3.81,3.81,0,0,1,74.79,82.9Z"></path></svg> 