<svg xmlns="http://www.w3.org/2000/svg" width="124" height="124" fill="none" xmlns:v="https://vecta.io/nano"><path d="M1 8a7 7 0 0 1 7-7h108a7 7 0 0 1 7 7v108a7 7 0 0 1-7 7H8a7 7 0 0 1-7-7V8z" stroke="#3ab23f" stroke-width="2"/><path fill="#fff" d="M33 33h59v56H33z"/><g fill-rule="evenodd"><path d="M8 12a4 4 0 0 1 4-4h100a4 4 0 0 1 4 4v100a4 4 0 0 1-4 4H12a4 4 0 0 1-4-4V12z" fill="#3ab23f"/><path d="M23.047 57.109h-.118l.142 2.87v7.822H20V51.26h2.834l6.625 11.023h.118l-.213-1.985V51.26h3.071v16.541h-2.835l-6.554-10.692zm12.713 8.092h4.157v-6.616H35.76v-2.599h7.228v9.216h4.37v2.599H35.76v-2.599zm3.59-12.43a1.67 1.67 0 0 1 .543-1.252c.362-.347.866-.52 1.512-.52.661 0 1.189.173 1.583.52a1.61 1.61 0 0 1 .59 1.252 1.53 1.53 0 0 1-.59 1.241c-.394.323-.921.484-1.583.484-.646 0-1.15-.162-1.512-.484s-.543-.736-.543-1.241zm10.72 5.813h-2.339v-2.599h2.339v-2.694l3.071-.874v3.568h6.189v2.599h-6.189v3.379c0 1.213.228 2.091.685 2.635s1.094.815 1.913.815c.425 0 .811-.051 1.157-.154s.657-.232.933-.39a5.34 5.34 0 0 0 .756-.52l.626-.52 1.417 2.127c-.268.315-.602.603-1.004.862s-.835.488-1.299.685-.949.35-1.453.461a6.95 6.95 0 0 1-1.488.165c-1.764 0-3.09-.492-3.98-1.477s-1.335-2.548-1.335-4.691v-3.379zm12.961 6.617h2.929v-6.617h-2.929v-2.599h5.315l.354 1.56h.094c.441-.52.945-.953 1.512-1.3s1.228-.52 1.984-.52c.945 0 1.689.347 2.232 1.04s.815 1.851.815 3.474h-2.764c0-.567-.083-.981-.248-1.241s-.429-.39-.791-.39c-.63 0-1.138.158-1.524.473s-.713.677-.98 1.087v5.033h5.126v2.599H63.032v-2.599zm14.685-3.309c0-.992.15-1.875.449-2.647s.724-1.426 1.276-1.961a5.44 5.44 0 0 1 1.972-1.217c.764-.276 1.618-.413 2.563-.413.992 0 1.878.15 2.657.449s1.437.721 1.972 1.264.941 1.201 1.216 1.973.413 1.623.413 2.552c0 .992-.15 1.875-.449 2.647s-.724 1.426-1.275 1.961a5.44 5.44 0 0 1-1.972 1.217c-.764.276-1.618.414-2.563.414-.992 0-1.878-.15-2.657-.449s-1.437-.721-1.972-1.264-.941-1.201-1.217-1.973-.413-1.623-.413-2.552zm3.165 0a4.69 4.69 0 0 0 .213 1.441 3.54 3.54 0 0 0 .614 1.158c.268.331.591.587.969.768s.811.272 1.299.272c.913 0 1.657-.291 2.232-.874s.862-1.505.862-2.765c0-1.087-.268-1.965-.803-2.635s-1.299-1.004-2.291-1.004c-.441 0-.85.067-1.228.201s-.705.351-.98.65-.492.677-.65 1.134-.236 1.008-.236 1.654zm12.63 8.673H104v2.528H93.513v-2.528z" fill="#fff"/></g></svg>